<?xml version="1.0" encoding="UTF-8"?>
<svg id="Layer_2" data-name="Layer 2" xmlns="http://www.w3.org/2000/svg" viewBox="0 0 50 50">
  <defs>
    <style>
      .cls-1 {
        fill: #fbffe4;
        stroke-width: 0px;
      }
    </style>
  </defs>
  <g id="Calque_1" data-name="Calque 1">
    <path class="cls-1" d="M22.22,21.28l1.88,5.88h-6.13l1.84-5.88c.43-1.42.78-3.08,1.13-4.46h.07c.35,1.38.74,3.01,1.2,4.46ZM50,8.33v33.33c0,4.58-3.75,8.33-8.33,8.33H8.33c-4.58,0-8.33-3.75-8.33-8.33V8.33C0,3.75,3.75,0,8.33,0h33.33c4.58,0,8.33,3.75,8.33,8.33ZM31.68,37.22l-7.76-23.87h-5.56l-7.65,23.87h4.5l2.05-6.77h7.58l2.16,6.77h4.68ZM39.04,19.97h-4.39v17.25h4.39v-17.25ZM39.29,15.15c-.04-1.35-.96-2.37-2.44-2.37s-2.44,1.03-2.44,2.37.96,2.34,2.41,2.34c1.52,0,2.48-1.03,2.48-2.34Z"/>
  </g>
</svg>