<?xml version="1.0" encoding="UTF-8"?>
<svg id="Layer_2" data-name="Layer 2" xmlns="http://www.w3.org/2000/svg" viewBox="0 0 50 65.51">
  <defs>
    <style>
      .cls-1 {
        fill: #fbffe4;
        stroke-width: 0px;
      }
    </style>
  </defs>
  <g id="Calque_1" data-name="Calque 1">
    <path class="cls-1" d="M39.43,5.33c2.69,1.07,4.41,2.71,5.25,5.02v.03s.02.03.02.03c.38,1.02.5,2.14.38,3.51-.2,2.03-.84,3.81-1.92,5.3-.8,1.1-1.65,1.89-2.63,2.4.64-1.31,1.27-2.68,1.66-4.25.77-3.18.71-5.79-.19-8.23-.58-1.54-1.45-2.82-2.57-3.8M23.58,5.59c-3.31,1.94-6.14,4.73-8.59,8.48-1.97,3.03-3.45,6.35-4.52,10.15-.73,2.57-1.24,5.35-1.55,8.48-.16,1.51-.24,3.17-.24,4.7.05,4.89.79,8.79,2.32,12.26,1.82,4.2,4.4,7.18,7.86,9.11,2.44,1.37,5.12,2.06,7.98,2.06.39,0,.93,0,1.52-.06,1.22-.1,2.41-.3,3.58-.6-1.95.77-4,1.2-6.11,1.29h-.1s-.1.01-.1.01c-.31.03-.63.03-1.01.03-4.3,0-8.15-1.13-11.42-3.33-3.2-2.18-5.64-5.37-7.25-9.48-.94-2.42-1.54-5.15-1.82-8.35-.33-3.87-.07-7.74.77-11.52,1.3-6.01,3.93-11.28,7.83-15.65,3.18-3.54,6.82-6.08,10.85-7.57M32.24,0c-2.35,0-4.82.31-7.3.97-5.8,1.5-10.89,4.74-15.18,9.52C5.42,15.36,2.45,21.2.99,27.97.06,32.18-.2,36.47.15,40.68c.31,3.54.97,6.64,2.08,9.47,1.9,4.87,4.82,8.68,8.72,11.33,3.94,2.66,8.54,4.03,13.68,4.03.44,0,.89,0,1.37-.04,3.1-.13,6.11-.89,8.9-2.21,5.44-2.61,9.83-6.82,13.01-12.53,1.11-2.08,1.77-3.85,2.04-5.67.09-.62.13-1.59-.4-2.48-.44-.71-1.11-1.11-1.86-1.11-.62,0-1.2.27-1.64.75-.35.35-.58.8-.8,1.2-1.37,2.74-2.97,5.05-4.87,7.04-3.72,3.9-7.79,5.98-12.39,6.33-.4.04-.8.04-1.15.04-2.17,0-4.2-.53-6.02-1.55-2.7-1.5-4.69-3.85-6.15-7.21-1.33-3.01-1.95-6.42-1.99-10.71,0-1.46.09-2.97.22-4.25.27-2.7.71-5.31,1.42-7.79.97-3.45,2.3-6.42,4.03-9.07,2.52-3.85,5.49-6.51,8.99-8.1,1.77-.8,3.45-1.2,5.05-1.2.71,0,1.42.09,2.12.27,1.86.44,3.1,1.55,3.76,3.32.62,1.68.62,3.5.04,5.89-.35,1.42-1.02,2.74-1.73,4.16l-.13.27c-.35.62-.71,1.37-.84,2.26-.09.75.09,1.5.53,2.08.44.58,1.11.89,1.86.97.22.04.4.04.62.04.53,0,1.02-.04,1.46-.18,2.52-.62,4.6-2.08,6.33-4.47,1.5-2.08,2.39-4.51,2.66-7.26.18-1.95,0-3.67-.62-5.31-1.28-3.54-3.98-6.06-7.92-7.52-2.66-.97-5.44-1.46-8.28-1.46h0Z"/>
  </g>
</svg>