<?xml version="1.0" encoding="UTF-8"?>
<svg id="Layer_2" data-name="Layer 2" xmlns="http://www.w3.org/2000/svg" viewBox="0 0 50 56.25">
  <defs>
    <style>
      .cls-1 {
        fill: #fbffe4;
        stroke-width: 0px;
      }
    </style>
  </defs>
  <g id="Calque_1" data-name="Calque 1">
    <g id="c133de6af664cd4f011a55de6b001b19">
      <path class="cls-1" d="M50,0l-4.69,50.78-20.31,5.47-20.31-5.47L0,0h50ZM40.55,10.33H9.13l.76,6.13h15.94l-.85.35-14.54,6.05.48,5.99,14.06.05,7.53.02-.48,7.99-7.05,1.99h0s-.06,0-.06,0l-6.81-1.72-.41-4.96h-6.36l.83,9.58,12.82,3.79h0s.02,0,.02,0l12.75-3.72,1.65-19.02h-14.46l.04-.02,14.95-6.39.62-6.13Z"/>
    </g>
  </g>
</svg>