<?xml version="1.0" encoding="UTF-8"?>
<svg id="Layer_2" data-name="Layer 2" xmlns="http://www.w3.org/2000/svg" viewBox="0 0 56 81">
  <defs>
    <style>
      .cls-1 {
        fill: none;
        stroke: #fbffe4;
        stroke-miterlimit: 10;
        stroke-width: 6px;
      }
    </style>
  </defs>
  <g id="Calque_1" data-name="Calque 1">
    <path class="cls-1" d="M28,3h-12.5c-6.9,0-12.5,5.6-12.5,12.5s5.6,12.5,12.5,12.5M28,3v25M28,3h12.5c6.9,0,12.5,5.6,12.5,12.5s-5.6,12.5-12.5,12.5M28,28h-12.5M28,28h12.5M28,28v25M15.5,28c-6.9,0-12.5,5.6-12.5,12.5s5.6,12.5,12.5,12.5M40.5,28c6.9,0,12.5,5.6,12.5,12.5s-5.6,12.5-12.5,12.5-12.5-5.6-12.5-12.5,5.6-12.5,12.5-12.5ZM28,53h-12.5M28,53v12.5c0,6.9-5.6,12.5-12.5,12.5s-12.5-5.6-12.5-12.5,5.6-12.5,12.5-12.5"/>
  </g>
</svg>