<?xml version="1.0" encoding="UTF-8"?>
<svg id="Layer_2" data-name="Layer 2" xmlns="http://www.w3.org/2000/svg" xmlns:xlink="http://www.w3.org/1999/xlink" viewBox="0 0 40 40">
  <defs>
    <style>
      .cls-1 {
        fill: #fbffe4;
        fill-rule: evenodd;
        stroke-width: 0px;
      }
    </style>
  </defs>
  <g id="Calque_1" data-name="Calque 1">
    <a xlink:href="https://github.com/labgenetic">
      <g id="Page-1">
        <g id="Dribbble-Light-Preview">
          <g id="icons">
            <path id="github-_142_" data-name="github-[#142]" class="cls-1" d="M20,0c11.05,0,20,9.18,20,20.51,0,9.06-5.72,16.74-13.67,19.46-1.01.2-1.37-.44-1.37-.98,0-.68.02-2.88.02-5.63,0-1.91-.64-3.16-1.36-3.8,4.45-.51,9.13-2.24,9.13-10.12,0-2.24-.78-4.07-2.06-5.5.21-.52.89-2.6-.2-5.43,0,0-1.68-.55-5.49,2.1-1.6-.45-3.31-.68-5.01-.69-1.7,0-3.41.24-5.01.69-3.82-2.65-5.5-2.1-5.5-2.1-1.09,2.82-.4,4.91-.19,5.43-1.28,1.44-2.06,3.26-2.06,5.5,0,7.86,4.67,9.62,9.11,10.13-.57.51-1.09,1.42-1.27,2.74-1.14.52-4.04,1.43-5.82-1.7,0,0-1.06-1.97-3.07-2.11,0,0-1.95-.03-.14,1.25,0,0,1.31.63,2.22,3,0,0,1.17,3.66,6.74,2.42,0,1.71.03,3.33.03,3.82,0,.54-.37,1.18-1.37.99C5.73,37.25,0,29.57,0,20.51,0,9.18,8.96,0,20,0"/>
          </g>
        </g>
      </g>
    </a>
  </g>
</svg>