<?xml version="1.0" encoding="UTF-8"?>
<svg id="Layer_2" data-name="Layer 2" xmlns="http://www.w3.org/2000/svg" viewBox="0 0 50 50">
  <defs>
    <style>
      .cls-1 {
        fill: #fbffe4;
        stroke-width: 0px;
      }
    </style>
  </defs>
  <g id="Calque_1" data-name="Calque 1">
    <g id="_2069a460dcf28295e231f3111e035a9d" data-name="2069a460dcf28295e231f3111e035a9d">
      <path class="cls-1" d="M33,26.19c.07.35.11.78.11,1.13v2.59c0,.46-.03.89-.14,1.28-.42,1.88-1.98,3.08-3.75,3.08-2.76,0-4.32-2.3-4.32-5.45s1.56-5.7,4.36-5.7c1.98,0,3.36,1.38,3.75,3.08ZM50,8.33v33.33c0,4.58-3.75,8.33-8.33,8.33H8.33c-4.58,0-8.33-3.75-8.33-8.33V8.33C0,3.75,3.75,0,8.33,0h33.33c4.58,0,8.33,3.75,8.33,8.33ZM16.75,13.51h-4.36v23.87h4.36V13.51ZM37.61,37.38c-.07-1.17-.14-3.08-.14-4.85V12.23h-4.36v9.78h-.07c-.78-1.28-2.48-2.27-4.85-2.27-4.14,0-7.76,3.44-7.72,9.21,0,5.31,3.26,8.82,7.37,8.82,2.51,0,4.6-1.2,5.63-3.12h.07l.18,2.73h3.9Z"/>
    </g>
  </g>
</svg>