<?xml version="1.0" encoding="UTF-8"?>
<svg id="Layer_2" data-name="Layer 2" xmlns="http://www.w3.org/2000/svg" viewBox="0 0 50 50">
  <defs>
    <style>
      .cls-1 {
        fill: #fbffe4;
        fill-rule: evenodd;
        stroke-width: 0px;
      }
    </style>
  </defs>
  <g id="Calque_1" data-name="Calque 1">
    <path class="cls-1" d="M.05,0C0,0,0,.08,0,.14v49.8c16.57.11,33.35.02,50,.05V0H.05ZM25.38,44.19c-1.16,1.17-2.98,1.85-5.23,1.85-3.68,0-5.73-1.79-7.03-4.28,1.26-.8,2.54-1.58,3.85-2.33.53,1.49,2.34,3.17,4.37,2.14,1.29-.66,1.14-2.64,1.14-4.8v-13.69c0-.07,0-.13.05-.14h4.61v11.5c0,4.17.3,7.67-1.76,9.74ZM46.01,40.06c-.26,3.9-3.45,5.97-7.75,5.99-4.21.01-6.91-1.86-8.56-4.75,1.18-.81,2.52-1.47,3.75-2.23.99,1.54,2.69,3.02,5.23,2.8,1.58-.14,3.41-1.42,2.38-3.37-.5-.95-1.71-1.43-2.8-1.9-3.46-1.51-7.52-2.89-7.13-8.32.13-1.81.96-3.08,2.04-3.99,1.11-.93,2.59-1.55,4.56-1.62,3.58-.11,5.55,1.48,6.89,3.71-1.14.87-2.4,1.63-3.66,2.38-.41-1.27-2.41-2.51-4.09-1.76-.76.34-1.45,1.35-1.05,2.57.36,1.09,1.82,1.68,2.99,2.19,3.56,1.52,7.53,3.01,7.18,8.32Z"/>
  </g>
</svg>