<?xml version="1.0" encoding="UTF-8"?>
<svg id="Layer_2" data-name="Layer 2" xmlns="http://www.w3.org/2000/svg" viewBox="0 0 50 50">
  <defs>
    <style>
      .cls-1 {
        fill: #fbffe4;
        stroke-width: 0px;
      }
    </style>
  </defs>
  <g id="Calque_1" data-name="Calque 1">
    <path class="cls-1" d="M37.11,46.88c-.19.1-.17.13,0,.04.06-.02.11-.06.15-.1t-.16.06h0ZM37.48,46.67q-.09.07.02.03c.06-.03.11-.06.11-.07,0-.04-.03-.03-.12.05ZM37.73,46.53q-.09.07.02.03c.06-.03.11-.07.11-.07,0-.04-.03-.03-.12.05ZM37.97,46.38q-.09.07.01.02c.06-.03.11-.06.11-.07,0-.04-.03-.03-.12.05h0ZM38.31,46.16c-.17.11-.23.19-.07.11.1-.06.28-.2.25-.2-.07.03-.12.07-.18.1h0ZM23.36.01c-.11,0-.46.04-.76.06C15.5.72,8.85,4.54,4.64,10.44,2.31,13.67.8,17.42.23,21.36c-.2,1.37-.23,1.78-.23,3.65s.02,2.26.23,3.64c1.36,9.39,8.04,17.28,17.1,20.2,1.63.52,3.34.88,5.28,1.1.76.08,4.03.08,4.78,0,3.36-.37,6.2-1.2,9.01-2.64.43-.22.51-.28.45-.32-1.37-1.81-2.72-3.63-4.08-5.46l-4-5.4-5-7.41c-1.67-2.48-3.34-4.96-5.05-7.41-.02,0-.04,3.3-.05,7.31-.02,7.04-.02,7.32-.11,7.49-.09.2-.24.36-.43.45-.15.07-.29.09-1.03.09h-.85l-.22-.14c-.14-.09-.25-.21-.32-.36l-.11-.22v-9.8s.02-9.8.02-9.8l.15-.2c.1-.12.22-.22.36-.29.2-.1.29-.11,1.13-.11.99,0,1.16.04,1.42.32,2.02,3.02,4.04,6.05,6.03,9.08,3.25,4.92,7.68,11.64,9.86,14.94l3.96,6,.2-.13c1.9-1.27,3.64-2.78,5.13-4.51,3.15-3.61,5.19-8.04,5.89-12.78.2-1.37.23-1.78.23-3.65s-.03-2.26-.23-3.64c-1.36-9.39-8.04-17.28-17.1-20.2-1.69-.54-3.44-.9-5.2-1.09-.47-.05-3.7-.11-4.11-.06h0ZM33.59,15.13c.24.11.41.32.5.57.04.13.05,2.85.04,8.97l-.02,8.79-1.55-2.37-1.55-2.38v-6.38c0-4.14.02-6.45.04-6.57.07-.26.25-.48.49-.62.19-.1.27-.11,1.04-.11.72,0,.85,0,1.01.1h0Z"/>
  </g>
</svg>