<?xml version="1.0" encoding="UTF-8"?>
<svg id="Layer_2" data-name="Layer 2" xmlns="http://www.w3.org/2000/svg" viewBox="0 0 150 133.13">
  <defs>
    <style>
      .cls-1 {
        fill: #3d8d7a;
        stroke-width: 0px;
      }
    </style>
  </defs>
  <g id="Calque_1" data-name="Calque 1">
    <g>
      <path class="cls-1" d="M93.38,54.19v14.26h-21.96v9.51s4.64,3.02,10.77,5.12c6.95,2.38,14.55,2.28,21.31-.6,4.52-1.93,9.21-5.27,11.14-11.05,0,0,12.83-45.69-21.61-48.48,0,0-17.08-1.9-22.44,9.89,0,0-4.72,9.12-8.94,7.1L21.96,19.01H4.72s-4.72-.89-4.72-6.21,4.6-5.96,4.6-5.96h20.04l25.02,11.15s5.23-10.27,16.47-14.7c0,0,8.87-3.3,28.6-3.3,12.52,0,27.7,2.03,40.53,14.39,11.55,11.12,14.59,26.19,14.74,44.68.17,20.9-12.78,47.78-50.55,48.92-41.87,1.27-56.68-17.49-56.68-17.49l.25-36.51,50.36.2Z"/>
      <path class="cls-1" d="M77.4,133.13c4.44,0,8.04-3.57,8.04-7.98s-3.6-7.98-8.04-7.98-8.04,3.57-8.04,7.98,3.6,7.98,8.04,7.98Z"/>
      <path class="cls-1" d="M115.53,132.26c4.44,0,8.04-3.57,8.04-7.98s-3.6-7.98-8.04-7.98-8.04,3.57-8.04,7.98,3.6,7.98,8.04,7.98Z"/>
    </g>
  </g>
</svg>