<?xml version="1.0" encoding="UTF-8"?>
<svg id="Layer_2" data-name="Layer 2" xmlns="http://www.w3.org/2000/svg" viewBox="0 0 123.51 138.46">
  <defs>
    <style>
      .cls-1, .cls-2, .cls-3 {
        stroke-width: 0px;
      }

      .cls-2 {
        fill: #fbffe4;
      }

      .cls-4 {
        fill: none;
      }

      .cls-4, .cls-5 {
        stroke: #ecca11;
        stroke-miterlimit: 10;
        stroke-width: 3px;
      }

      .cls-3, .cls-5 {
        fill: #ecca11;
      }
    </style>
  </defs>
  <g id="Calque_1" data-name="Calque 1">
    <g>
      <path class="cls-1" d="M102.21,38.17c-8.68-8.06-18.56-12.09-29.64-12.09-11.98,0-22.08,4.26-30.31,12.76-8.23,8.51-12.34,18.7-12.34,30.56v50.95c.36.17.69.37,1.01.59.16.07.3.18.45.27.12.04.22.1.34.14,2.04.22,3.63,1.09,4.78,2.32.57.18,1.14.4,1.67.71l.62.48c1.51.1,2.79.53,3.84,1.21.68.16,1.28.42,1.85.71.32-.03.66-.05,1.01-.05,1.79,0,3.27.46,4.47,1.23.93-.36,1.98-.57,3.16-.57,2.18,0,3.91.69,5.21,1.78.79-.15,1.64-.16,2.48-.06v-58.36c0-4.03.98-7.39,2.94-10.08,1.96-2.69,4.9-4.03,8.82-4.03,3.47,0,6.41,1.17,8.82,3.53,2.41,2.35,3.61,5.26,3.61,8.73,0,3.25-1.18,6.02-3.53,8.31-2.35,2.3-5.15,3.44-8.4,3.44-2.02,0-4.37-.84-7.05-2.52v32.41c2.24.34,4.53.5,6.89.5,12.2,0,22.3-4.28,30.31-12.85,8-8.56,12.01-19,12.01-31.32,0-11.08-4.34-20.66-13.01-28.72Z"/>
      <circle class="cls-2" cx="73.2" cy="69.21" r="26.87"/>
      <path class="cls-2" d="M51.52,130.13c1.8-.4,3.62-.34,5.32.04,1.72-.13,3.47.04,5.08.51v-61.68h-15.58v61.05c1.23.08,2.31.33,3.28.68.6-.25,1.24-.46,1.91-.61Z"/>
      <path class="cls-5" d="M80.37,71.92c0,4.27-3.52,7.03-7.73,7.73-11.19,1.85-11.65,1.38-7.73-7.73,1.69-3.92,3.46-7.73,7.73-7.73s7.73,3.46,7.73,7.73Z"/>
      <g>
        <path class="cls-3" d="M115.28,107.9c-11.53,10.7-25.94,18.54-43.43,18.54-34.72,0-57.87-23.01-57.87-56.95S37.59,12.02,71.99,12.02c15.86,0,28.31,7.01,39.26,17.32l6.91-8.17C107.6,10.88,93.39,1.5,71.77,1.5,33.25,1.5,1.5,26.29,1.5,69.5s29.85,67.46,69.91,67.46c20.13,0,36.76-8.31,50.09-20.81l-6.22-8.25Z"/>
        <path class="cls-4" d="M115.28,107.9c-11.53,10.7-25.94,18.54-43.43,18.54-34.72,0-57.87-23.01-57.87-56.95S37.59,12.02,71.99,12.02c15.86,0,28.31,7.01,39.26,17.32l6.91-8.17C107.6,10.88,93.39,1.5,71.77,1.5,33.25,1.5,1.5,26.29,1.5,69.5s29.85,67.46,69.91,67.46c20.13,0,36.76-8.31,50.09-20.81l-6.22-8.25Z"/>
      </g>
    </g>
  </g>
</svg>