<?xml version="1.0" encoding="UTF-8"?>
<svg id="Layer_2" data-name="Layer 2" xmlns="http://www.w3.org/2000/svg" viewBox="0 0 50 50">
  <defs>
    <style>
      .cls-1 {
        fill: #fbffe4;
        stroke-width: 0px;
      }
    </style>
  </defs>
  <g id="Calque_1" data-name="Calque 1">
    <g id="_2069a460dcf28295e231f3111e037552" data-name="2069a460dcf28295e231f3111e037552">
      <path class="cls-1" d="M41.67,0H8.33C3.75,0,0,3.75,0,8.33v33.33c0,4.58,3.75,8.33,8.33,8.33h33.33c4.58,0,8.33-3.75,8.33-8.33V8.33c0-4.58-3.75-8.33-8.33-8.33ZM23.96,25.44c-1.74,1.74-4.46,2.55-7.54,2.55-.81,0-1.56-.04-2.13-.14v9h-4.32V13.29c1.56-.28,3.72-.5,6.66-.5,3.19,0,5.53.67,7.05,1.95,1.42,1.17,2.34,3.05,2.34,5.28,0,2.27-.71,4.14-2.05,5.42ZM33.02,37.2c-2.09,0-3.97-.5-5.24-1.2l.85-3.15c.99.6,2.87,1.24,4.43,1.24,1.91,0,2.76-.78,2.76-1.91s-.71-1.77-2.83-2.51c-3.37-1.17-4.78-3.01-4.75-5.03,0-3.05,2.51-5.42,6.52-5.42,1.91,0,3.58.5,4.57,1.03l-.85,3.08c-.74-.42-2.13-.99-3.65-.99s-2.41.74-2.41,1.81.81,1.63,3.01,2.41c3.12,1.13,4.57,2.73,4.6,5.28,0,3.12-2.44,5.38-7.01,5.38ZM21.65,20.2c0,2.8-1.98,4.39-5.24,4.39-.89,0-1.59-.04-2.13-.18v-8.08c.46-.11,1.31-.21,2.52-.21,3.01,0,4.85,1.42,4.85,4.07Z"/>
    </g>
  </g>
</svg>