<?xml version="1.0" encoding="UTF-8"?>
<svg id="Layer_2" data-name="Layer 2" xmlns="http://www.w3.org/2000/svg" viewBox="0 0 50 45.18">
  <defs>
    <style>
      .cls-1 {
        fill: #fbffe4;
        stroke-width: 0px;
      }
    </style>
  </defs>
  <g id="Calque_1" data-name="Calque 1">
    <g>
      <path class="cls-1" d="M15.16,5c-.78.45-1.61,1.7-1.71,4.42-.05,1.29-1.13,2.31-2.42,2.26-1.29-.05-2.31-1.13-2.26-2.42.12-3.34,1.17-6.66,4.05-8.32,2.88-1.66,6.3-.91,9.25.67,1.14.61,1.57,2.03.96,3.17-.61,1.14-2.03,1.57-3.17.96-2.42-1.29-3.92-1.2-4.7-.75ZM27.72,9.06c1-.83,2.47-.69,3.3.31,1.73,2.09,3.39,4.48,4.9,7.09,3.25,5.63,5.26,11.4,5.8,16.24.27,2.42.19,4.71-.38,6.68-.57,1.99-1.68,3.78-3.53,4.86-2.25,1.3-4.84,1.11-7.21.25-2.38-.87-4.83-2.51-7.17-4.64-.96-.87-1.02-2.36-.15-3.31.87-.96,2.36-1.02,3.31-.15,2.06,1.88,4,3.11,5.62,3.7,1.63.59,2.65.45,3.27.1.51-.3,1.03-.9,1.37-2.09.34-1.2.45-2.84.22-4.88-.45-4.06-2.19-9.21-5.2-14.41-1.38-2.39-2.9-4.56-4.45-6.44-.83-1-.69-2.47.31-3.3Z"/>
      <path class="cls-1" d="M45.31,23.23c0-.91-.67-2.24-2.98-3.69-1.1-.69-1.43-2.13-.74-3.23s2.13-1.43,3.23-.74c2.83,1.77,5.18,4.35,5.18,7.66s-2.36,5.91-5.21,7.68c-1.1.68-2.54.35-3.23-.75-.68-1.1-.35-2.54.75-3.23,2.33-1.45,3-2.79,3-3.7ZM35.51,32.08c.22,1.28-.64,2.49-1.92,2.7-2.68.45-5.57.7-8.59.7-6.5,0-12.5-1.15-16.96-3.1-2.23-.97-4.18-2.19-5.6-3.67-1.44-1.49-2.44-3.34-2.44-5.49,0-2.59,1.46-4.75,3.39-6.37,1.94-1.63,4.59-2.93,7.61-3.89,1.23-.39,2.55.29,2.94,1.52.39,1.23-.29,2.55-1.52,2.94-2.66.84-4.69,1.9-6.01,3.01-1.33,1.11-1.72,2.07-1.72,2.78,0,.59.26,1.34,1.12,2.23.87.9,2.24,1.81,4.11,2.63,3.74,1.64,9.07,2.71,15.08,2.71,2.76,0,5.4-.23,7.8-.64,1.28-.22,2.49.64,2.7,1.92Z"/>
      <path class="cls-1" d="M15.22,40.18c.78.45,2.28.54,4.68-.74,1.14-.61,2.56-.17,3.17.97.61,1.14.17,2.56-.97,3.17-2.95,1.57-6.36,2.31-9.23.66-2.88-1.66-3.93-5-4.05-8.35-.04-1.29.97-2.38,2.26-2.42,1.29-.04,2.38.97,2.42,2.26.09,2.74.92,3.99,1.71,4.45ZM12.46,27.26c-1.21-.45-1.83-1.8-1.38-3.01.94-2.55,2.18-5.18,3.69-7.79,3.25-5.63,7.24-10.25,11.16-13.14,1.96-1.44,3.99-2.52,5.98-3.02,2-.5,4.11-.44,5.97.63,2.25,1.3,3.38,3.64,3.82,6.12.44,2.5.24,5.44-.44,8.53-.28,1.26-1.53,2.06-2.79,1.79-1.26-.28-2.06-1.53-1.79-2.79.6-2.72.7-5.02.4-6.71-.3-1.71-.94-2.52-1.55-2.88-.51-.3-1.3-.44-2.49-.14-1.21.3-2.69,1.03-4.33,2.24-3.29,2.42-6.88,6.5-9.88,11.71-1.38,2.39-2.5,4.79-3.35,7.08-.45,1.21-1.8,1.83-3.01,1.38Z"/>
      <circle class="cls-1" cx="25.31" cy="22.79" r="4.25" transform="translate(-2.59 42.33) rotate(-77)"/>
    </g>
  </g>
</svg>