<?xml version="1.0" encoding="UTF-8"?>
<svg id="Layer_2" data-name="Layer 2" xmlns="http://www.w3.org/2000/svg" xmlns:xlink="http://www.w3.org/1999/xlink" viewBox="0 0 31.38 40">
  <defs>
    <style>
      .cls-1 {
        fill: #3d8d7a;
        stroke-width: 0px;
      }
    </style>
  </defs>
  <g id="Calque_1" data-name="Calque 1">
    <a xlink:href="https://stackoverflow.com/users/24643497/charaf-lamar">
      <path class="cls-1" d="M26.09,39.2c0,.78-.02.78-.02.78v.02H.8c-.78,0-.78-.02-.78-.02h-.02v-16.43h2.7v13.8h20.71v-13.8h2.67v15.65ZM20.71,34.64l-15.78.02v-3.37l15.78-.02v3.37h0ZM21.09,26.96l-.29,3.35-15.74-1.45.31-3.35,15.71,1.45h0ZM22.14,22.54l-.87,3.26-15.24-4.09.87-3.26,15.25,4.08ZM24.13,18.7l-1.72,2.9-13.59-8.03,1.72-2.9,13.59,8.03h0ZM27.45,16.34l-2.76,1.9L15.78,5.2l2.79-1.92,8.88,13.06h0ZM31.38,15.56l-3.33.58L25.36.58l3.32-.58,2.7,15.56Z"/>
    </a>
  </g>
</svg>