<?xml version="1.0" encoding="UTF-8"?>
<svg id="Layer_2" data-name="Layer 2" xmlns="http://www.w3.org/2000/svg" viewBox="0 0 50 32.14">
  <defs>
    <style>
      .cls-1 {
        fill: #fbffe4;
        stroke-width: 0px;
      }
    </style>
  </defs>
  <g id="Calque_1" data-name="Calque 1">
    <path class="cls-1" d="M25,0c-6.67,0-10.83,3.57-12.5,10.71,2.5-3.57,5.42-4.91,8.75-4.02,1.9.51,3.26,1.99,4.77,3.62,2.45,2.67,5.29,5.75,11.48,5.75,6.67,0,10.83-3.57,12.5-10.71-2.5,3.57-5.42,4.91-8.75,4.02-1.9-.51-3.26-1.99-4.77-3.62-2.45-2.67-5.29-5.75-11.48-5.75ZM12.5,16.07c-6.67,0-10.83,3.57-12.5,10.71,2.5-3.57,5.42-4.91,8.75-4.02,1.9.51,3.26,1.99,4.77,3.62,2.45,2.67,5.29,5.75,11.48,5.75,6.67,0,10.83-3.57,12.5-10.71-2.5,3.57-5.42,4.91-8.75,4.02-1.9-.51-3.26-1.99-4.77-3.62-2.45-2.67-5.29-5.75-11.48-5.75Z"/>
  </g>
</svg>